<svg width="90" height="136" viewBox="0 0 90 136" fill="none" xmlns="http://www.w3.org/2000/svg">
<path d="M33.6313 72C36.4313 66.6667 38.2313 62.6667 39.0313 60C39.8313 57.3333 40.2313 54.8 40.2313 52.4C40.2313 48.1333 38.8313 44.8667 36.0313 42.6C33.2313 40.2 29.1646 39 23.8313 39C22.7646 39 21.7646 39.0667 20.8313 39.2C19.8979 39.2 19.0313 39.2667 18.2312 39.4C17.2979 39.5333 16.4313 39.6 15.6313 39.6V2.59999C17.4979 2.19999 19.1646 1.86666 20.6313 1.59999C22.0979 1.33333 23.4979 1.13333 24.8313 0.999998C26.2979 0.866658 27.7646 0.799988 29.2313 0.799988C30.8313 0.666657 32.6313 0.599991 34.6313 0.599991C41.0313 0.599991 47.2979 1.33333 53.4313 2.8C59.6979 4.13333 65.2979 6.4 70.2313 9.59999C75.1646 12.8 79.1646 17.0667 82.2313 22.4C85.2979 27.7333 86.8313 34.2667 86.8313 42C86.8313 45.6 86.4313 49.2 85.6313 52.8C84.8313 56.2667 83.5646 60.0667 81.8313 64.2C80.2313 68.3333 78.0979 73 75.4313 78.2C72.8979 83.2667 69.8979 89.2 66.4313 96L63.8312 101H89.0313L77.6313 136H0.0312499L33.6313 72Z" fill="#F51240"/>
</svg>
