<svg width="74" height="137" viewBox="0 0 74 137" fill="none" xmlns="http://www.w3.org/2000/svg">
<path d="M0.363282 99.2C1.82995 99.4667 3.16328 99.6 4.36328 99.6C5.69661 99.6 6.96328 99.6 8.16328 99.6C12.4299 99.6 15.9633 99.2 18.7633 98.4C21.6966 97.4667 23.9633 96.2667 25.5633 94.8C27.2966 93.3333 28.4966 91.7333 29.1633 90C29.9633 88.1333 30.3633 86.2 30.3633 84.2C30.3633 81.4 29.4299 78.7333 27.5633 76.2C25.6966 73.6667 23.3633 71.4 20.5633 69.4C17.7633 67.2667 14.7633 65.3333 11.5633 63.6C8.36328 61.8667 5.49661 60.4 2.96328 59.2C5.22995 57.7333 7.49661 56.2 9.76328 54.6C12.0299 53 14.0299 51.4 15.7633 49.8C17.6299 48.0667 19.0966 46.4 20.1633 44.8C21.2299 43.2 21.7633 41.6667 21.7633 40.2C21.7633 37.8 20.8299 36.2 18.9633 35.4C17.2299 34.4667 15.2966 34 13.1633 34C11.4299 34 9.76328 34.1333 8.16328 34.4C6.69661 34.5333 5.36328 34.7333 4.16328 35C2.69661 35.4 1.42995 35.7333 0.363282 36V2.39999C2.22995 2 4.42995 1.6 6.96328 1.19999C9.22995 0.933331 12.0299 0.666664 15.3633 0.399992C18.8299 0.133329 22.8966 -2.38419e-06 27.5633 -2.38419e-06C40.6299 -2.38419e-06 50.2299 2.99999 56.3633 8.99999C62.6299 14.8667 65.7633 22.6 65.7633 32.2C65.7633 35.5333 65.2299 38.6 64.1633 41.4C63.0966 44.0667 61.8966 46.4 60.5633 48.4C59.0966 50.8 57.4299 53 55.5633 55C58.8966 57.6667 61.8966 60.7333 64.5633 64.2C66.83 67.2667 68.8966 70.9333 70.7633 75.2C72.6299 79.4667 73.5633 84.2667 73.5633 89.6C73.5633 97.8667 71.8299 105 68.3633 111C65.0299 116.867 60.4966 121.733 54.7633 125.6C49.03 129.333 42.3633 132.133 34.7633 134C27.2966 135.733 19.4966 136.6 11.3633 136.6C10.0299 136.6 8.42995 136.6 6.56328 136.6C4.82995 136.6 2.76328 136.533 0.363282 136.4V99.2Z" fill="#F51240"/>
</svg>
