<svg width="234" height="242" viewBox="0 0 234 242" fill="none" xmlns="http://www.w3.org/2000/svg">
<path d="M5.73445 38.0107L66.1055 31.1682C66.6269 31.1682 68.9208 31.5687 70.7976 33.1709C72.6744 34.773 73.5607 37.065 73.7692 38.0107L79.3997 91.9163C79.6082 92.9733 79.4622 95.6213 77.2101 97.7575C74.9579 99.8936 69.5485 100.703 68.3494 100.536L70.6728 114.808L56.4008 102.196L18.5594 105.601C17.7253 105.601 15.5252 105.167 13.3981 103.432C11.2711 101.696 11.0521 99.8158 11.2085 99.0926L0.886002 47.0228C0.729599 46.2996 0.698318 44.219 1.82441 41.6823C2.9505 39.1456 4.90031 38.1776 5.73445 38.0107Z" fill="#F5C406"/>
<path d="M37.6546 53.3886C39.0877 52.9676 40.4176 52.7845 41.6444 52.8392C42.8712 52.894 43.9697 53.1594 44.9398 53.6355C45.9099 54.1116 46.7263 54.7712 47.3891 55.6143C48.0743 56.4162 48.576 57.3585 48.894 58.4412C49.1372 59.2692 49.2662 60.0615 49.2809 60.8182C49.2957 61.575 49.2055 62.3279 49.0105 63.077C48.8472 63.8168 48.5885 64.5847 48.2342 65.3806C47.8799 66.1766 47.4554 67.0277 46.9606 67.9341C46.4883 68.7993 46.0947 69.5203 45.7799 70.0971C45.465 70.6739 45.2157 71.1795 45.032 71.614C44.8708 72.0073 44.7686 72.3659 44.7254 72.69C44.714 73.0046 44.7645 73.353 44.8767 73.7352C45.0171 74.2128 45.223 74.6194 45.4944 74.9547L40.2594 77.2709C40.0703 76.9805 39.8625 76.6264 39.636 76.2086C39.4095 75.7909 39.2308 75.3591 39.0999 74.9132C38.7257 73.6394 38.6989 72.4884 39.0196 71.4602C39.372 70.4227 39.8988 69.2129 40.5998 67.8308C41.0177 67.0162 41.3636 66.3092 41.6372 65.7099C41.9015 65.0788 42.0956 64.5029 42.2194 63.9822C42.375 63.4522 42.4511 62.9456 42.4475 62.4623C42.4439 61.9791 42.3626 61.4668 42.2036 60.9254C41.9604 60.0974 41.4726 59.4969 40.7404 59.124C40.0307 58.7098 39.1822 58.6477 38.195 58.9377C37.4307 59.1622 36.7788 59.4747 36.2392 59.8754C35.7315 60.2667 35.1816 60.8088 34.5894 61.5016L30.9916 57.7327C31.7281 56.8245 32.6405 55.9857 33.729 55.2163C34.8494 54.4375 36.1579 53.8282 37.6546 53.3886ZM41.7041 83.9553C41.3954 82.9044 41.5043 81.9211 42.031 81.0054C42.5576 80.0896 43.2986 79.4915 44.254 79.2108C45.2412 78.9208 46.188 79.0232 47.0943 79.518C48.0326 80.0035 48.656 80.7716 48.9647 81.8225C49.2921 82.9371 49.1878 83.9363 48.6519 84.8202C48.1477 85.6948 47.402 86.277 46.4148 86.567C45.4595 86.8477 44.5174 86.7612 43.5885 86.3076C42.6596 85.854 42.0315 85.0699 41.7041 83.9553Z" fill="white"/>
<path d="M228.588 35.6489L164.53 28.8448C163.977 28.8448 161.543 29.2431 159.551 30.8363C157.56 32.4294 156.619 34.7085 156.398 35.6489L150.424 89.2517C150.203 90.3027 150.357 92.9358 152.747 95.06C155.137 97.1842 158.279 97.3833 159.551 97.2174L157.56 116.966L171.832 98.545L214.979 102.86C215.865 102.86 218.199 102.428 220.456 100.702C222.713 98.9765 222.945 97.1067 222.779 96.3876L233.732 44.6104C233.898 43.8912 233.931 41.8224 232.736 39.2999C231.542 36.7774 229.473 35.8149 228.588 35.6489Z" fill="#F51240"/>
<path d="M197.721 53.2399L191.415 52.0782L187.93 72.1585L193.738 73.1542L197.721 53.2399Z" fill="white"/>
<path d="M192.742 76.4733L187.432 75.6436L186.602 81.4519L191.747 82.2817L192.742 76.4733Z" fill="white"/>
<g style="mix-blend-mode:darken">
<path fill-rule="evenodd" clip-rule="evenodd" d="M114.293 107.778C142.707 110.474 167.927 89.6259 170.623 61.2121C173.32 32.7983 152.471 7.5785 124.058 4.88216C95.6438 2.18582 70.424 23.034 67.7277 51.4478C65.7252 72.5502 76.7092 91.8908 94.1342 101.552L104.047 122.637L108.134 106.821C110.142 107.257 112.197 107.579 114.293 107.778Z" fill="#31D9C8"/>
<path fill-rule="evenodd" clip-rule="evenodd" d="M148.847 44.3667L139.517 35.0367L111.282 63.2722L97.3403 49.3309L88.0103 58.6609L101.952 72.6022L101.938 72.6159L111.268 81.9459L148.847 44.3667Z" fill="white"/>
</g>
<mask id="mask0" mask-type="alpha" maskUnits="userSpaceOnUse" x="11" y="128" width="212" height="65">
<path d="M11.3765 128.199H18.7789L26.0972 138.966L33.3734 128.199H40.7758V156.252H31.8172V146.158L26.0972 154.57L20.3351 146.158V156.252H11.3765V128.199ZM16.6759 152.887V133.582L26.0972 147.293L35.4764 133.582V152.887H36.5699V131.563H35.4764L26.0972 145.401L16.6759 131.563H15.5824V152.887H16.6759Z" fill="white"/>
<path d="M52.8701 128.199H59.5996L70.2405 156.252H61.4081L60.4828 153.729H51.9869L51.0616 156.252H42.2291L52.8701 128.199ZM58.1275 147.546L56.2348 142.625L54.3422 147.546H58.1275ZM48.496 152.887L49.2951 150.784H63.1746L63.9737 152.887H65.1514L57.034 131.563H55.4357L47.3183 152.887H48.496ZM56.2348 132.573L62.7961 149.775H49.6736L56.2348 132.573Z" fill="white"/>
<path d="M71.7116 128.199H79.072L86.8109 139.008V128.199H95.6012V156.252H88.1988L80.502 145.485V156.252H71.7116V128.199ZM76.7167 152.887V133.456L90.5962 152.887H91.6897V131.563H90.5962V150.995L76.7167 131.563H75.6231V152.887H76.7167Z" fill="white"/>
<path d="M107.701 128.199H114.431L125.072 156.252H116.239L115.314 153.729H106.818L105.893 156.252H97.0605L107.701 128.199ZM112.959 147.546L111.066 142.625L109.173 147.546H112.959ZM103.327 152.887L104.126 150.784H118.006L118.805 152.887H119.983L111.865 131.563H110.267L102.15 152.887H103.327ZM111.066 132.573L117.627 149.775H104.505L111.066 132.573Z" fill="white"/>
<path d="M128.977 128.199L133.73 140.396L138.525 128.199H148.325L137.389 156.252H130.113L119.178 128.199H128.977ZM134.193 152.887L142.52 131.563H141.343L133.73 150.953L126.159 131.563H124.982L133.31 152.887H134.193Z" fill="white"/>
<path d="M153.086 128.199H159.815L170.456 156.252H161.624L160.699 153.729H152.203L151.277 156.252H142.445L153.086 128.199ZM158.343 147.546L156.451 142.625L154.558 147.546H158.343ZM148.712 152.887L149.511 150.784H163.39L164.189 152.887H165.367L157.25 131.563H155.651L147.534 152.887H148.712ZM156.451 132.573L163.012 149.775H149.889L156.451 132.573Z" fill="white"/>
<path d="M180.255 128.199H186.985L197.626 156.252H188.793L187.868 153.729H179.372L178.447 156.252H169.614L180.255 128.199ZM185.512 147.546L183.62 142.625L181.727 147.546H185.512ZM175.881 152.887L176.68 150.784H190.56L191.359 152.887H192.536L184.419 131.563H182.821L174.703 152.887H175.881ZM183.62 132.573L190.181 149.775H177.059L183.62 132.573Z" fill="white"/>
<path d="M207.845 146.494C208.938 146.494 210.004 146.382 211.041 146.158L215.037 152.887H216.341L212.135 145.821C213.649 145.289 214.855 144.475 215.752 143.382C216.649 142.26 217.098 140.816 217.098 139.05C217.098 137.816 216.86 136.737 216.383 135.811C215.906 134.886 215.247 134.115 214.406 133.498C213.593 132.853 212.626 132.376 211.504 132.068C210.382 131.732 209.163 131.563 207.845 131.563H203.303V152.887H204.396V146.494H207.845ZM204.396 145.485V132.573H207.845C210.396 132.573 212.387 133.134 213.817 134.255C215.275 135.377 216.004 136.975 216.004 139.05C216.004 141.125 215.275 142.723 213.817 143.845C212.387 144.938 210.396 145.485 207.845 145.485H204.396ZM199.097 128.199H208.77C210.565 128.199 212.219 128.437 213.733 128.914C215.275 129.39 216.607 130.091 217.729 131.017C218.85 131.942 219.72 133.091 220.336 134.465C220.981 135.811 221.304 137.368 221.304 139.134C221.304 140.536 221.108 141.728 220.715 142.709C220.322 143.69 219.888 144.504 219.411 145.148C218.85 145.877 218.22 146.494 217.519 146.999L222.776 156.252H212.261L208.055 149.144V156.252H199.097V128.199ZM208.055 141.994H208.518C209.583 141.994 210.481 141.756 211.21 141.279C211.967 140.802 212.345 140.003 212.345 138.882C212.345 137.76 211.967 136.961 211.21 136.484C210.481 136.008 209.583 135.769 208.518 135.769H208.055V141.994Z" fill="white"/>
<path d="M38.3814 163.949H45.7838L53.1021 174.716L60.3783 163.949H67.7807V192.002H58.8221V181.908L53.1021 190.32L47.34 181.908V192.002H38.3814V163.949ZM43.6808 188.638V169.332L53.1021 183.044L62.4813 169.332V188.638H63.5748V167.314H62.4813L53.1021 181.151L43.6808 167.314H42.5873V188.638H43.6808Z" fill="white"/>
<path d="M83.0295 192.717C81.263 192.717 79.6647 192.493 78.2347 192.044C76.8047 191.596 75.585 190.923 74.5756 190.026C73.5662 189.128 72.7811 187.993 72.2203 186.619C71.6875 185.245 71.4211 183.633 71.4211 181.782V163.949H80.3797V181.403C80.3797 182.385 80.576 183.142 80.9686 183.675C81.3892 184.179 82.0761 184.432 83.0295 184.432C83.9828 184.432 84.6558 184.179 85.0483 183.675C85.4689 183.142 85.6792 182.385 85.6792 181.403V163.949H94.6798V181.782C94.6798 183.633 94.3995 185.245 93.8387 186.619C93.3059 187.993 92.5208 189.128 91.4834 190.026C90.4739 190.923 89.2542 191.596 87.8242 192.044C86.3942 192.493 84.796 192.717 83.0295 192.717ZM83.0295 187.67C78.8236 187.67 76.7206 185.609 76.7206 181.488V167.314H75.6271V181.488C75.6271 183.843 76.2579 185.651 77.5197 186.913C78.8095 188.147 80.6461 188.764 83.0295 188.764C85.4128 188.764 87.2494 188.147 88.5392 186.913C89.829 185.651 90.4739 183.843 90.4739 181.488V167.314H89.3383V181.488C89.3383 185.609 87.2354 187.67 83.0295 187.67Z" fill="white"/>
<path d="M107.095 182.245C108.189 182.245 109.254 182.132 110.292 181.908L114.287 188.638H115.591L111.385 181.572C112.899 181.039 114.105 180.226 115.002 179.132C115.9 178.011 116.348 176.567 116.348 174.8C116.348 173.566 116.11 172.487 115.633 171.562C115.157 170.636 114.498 169.865 113.656 169.248C112.843 168.603 111.876 168.127 110.754 167.818C109.633 167.482 108.413 167.314 107.095 167.314H102.553V188.638H103.646V182.245H107.095ZM103.646 181.235V168.323H107.095C109.647 168.323 111.638 168.884 113.068 170.005C114.526 171.127 115.255 172.725 115.255 174.8C115.255 176.875 114.526 178.473 113.068 179.595C111.638 180.688 109.647 181.235 107.095 181.235H103.646ZM98.3469 163.949H108.02C109.815 163.949 111.469 164.187 112.983 164.664C114.526 165.141 115.858 165.842 116.979 166.767C118.101 167.692 118.97 168.842 119.587 170.216C120.232 171.562 120.554 173.118 120.554 174.884C120.554 176.286 120.358 177.478 119.965 178.459C119.573 179.441 119.138 180.254 118.661 180.899C118.101 181.628 117.47 182.245 116.769 182.749L122.026 192.002H111.511L107.305 184.894V192.002H98.3469V163.949ZM107.305 177.744H107.768C108.834 177.744 109.731 177.506 110.46 177.029C111.217 176.553 111.596 175.753 111.596 174.632C111.596 173.51 111.217 172.711 110.46 172.235C109.731 171.758 108.834 171.52 107.768 171.52H107.305V177.744Z" fill="white"/>
<path d="M132.037 163.949H138.766L149.407 192.002H140.575L139.649 189.479H131.153L130.228 192.002H121.396L132.037 163.949ZM137.294 183.296L135.401 178.375L133.509 183.296H137.294ZM127.662 188.638L128.462 186.535H142.341L143.14 188.638H144.318L136.2 167.314H134.602L126.485 188.638H127.662ZM135.401 168.323L141.963 185.525H128.84L135.401 168.323Z" fill="white"/>
<path d="M153.654 188.343C154.047 188.427 154.467 188.497 154.916 188.553C155.308 188.61 155.715 188.666 156.135 188.722C156.584 188.75 157.033 188.764 157.481 188.764C158.266 188.764 159.024 188.68 159.753 188.511C160.51 188.315 161.183 188.007 161.771 187.586C162.36 187.166 162.823 186.633 163.159 185.988C163.524 185.315 163.706 184.502 163.706 183.548C163.706 182.735 163.496 181.964 163.075 181.235C162.683 180.506 162.164 179.805 161.519 179.132C160.902 178.459 160.229 177.814 159.5 177.198C158.799 176.581 158.126 175.964 157.481 175.347C156.865 174.702 156.346 174.071 155.925 173.454C155.533 172.809 155.336 172.15 155.336 171.477C155.336 170.468 155.659 169.697 156.304 169.164C156.949 168.603 157.986 168.323 159.416 168.323C159.64 168.323 159.865 168.337 160.089 168.365C160.341 168.365 160.58 168.379 160.804 168.407C161.028 168.435 161.253 168.449 161.477 168.449V167.356C161.281 167.356 161.07 167.342 160.846 167.314C160.65 167.286 160.426 167.272 160.173 167.272C159.949 167.244 159.711 167.229 159.458 167.229C157.944 167.229 156.696 167.58 155.715 168.281C154.734 168.954 154.243 170.019 154.243 171.477C154.243 172.263 154.439 173.006 154.832 173.707C155.252 174.38 155.771 175.052 156.388 175.725C157.033 176.37 157.706 177.001 158.407 177.618C159.136 178.235 159.809 178.866 160.426 179.511C161.07 180.128 161.589 180.773 161.982 181.445C162.402 182.118 162.613 182.819 162.613 183.548C162.613 184.894 162.15 185.918 161.225 186.619C160.327 187.32 159.08 187.67 157.481 187.67C156.528 187.67 155.659 187.6 154.874 187.46C154.453 187.404 154.047 187.334 153.654 187.25V188.343ZM150.121 183.296C150.738 183.492 151.383 183.647 152.056 183.759C152.617 183.899 153.247 184.011 153.948 184.095C154.677 184.179 155.406 184.221 156.135 184.221C157.425 184.221 158.07 183.745 158.07 182.791C158.07 182.427 157.874 182.062 157.481 181.698C157.089 181.305 156.584 180.885 155.967 180.436C155.378 179.959 154.734 179.441 154.033 178.88C153.36 178.319 152.715 177.674 152.098 176.945C151.509 176.216 151.018 175.403 150.626 174.506C150.233 173.58 150.037 172.529 150.037 171.351C150.037 170.033 150.275 168.87 150.752 167.86C151.229 166.851 151.888 166.01 152.729 165.337C153.57 164.664 154.551 164.159 155.673 163.823C156.822 163.458 158.042 163.276 159.332 163.276C160.005 163.276 160.678 163.318 161.351 163.402C162.024 163.458 162.627 163.514 163.159 163.57C163.776 163.654 164.379 163.739 164.968 163.823V171.688C164.744 171.66 164.491 171.632 164.211 171.604C163.987 171.576 163.734 171.548 163.454 171.52C163.173 171.491 162.879 171.477 162.571 171.477C162.402 171.477 162.192 171.491 161.94 171.52C161.687 171.52 161.449 171.548 161.225 171.604C161 171.66 160.804 171.758 160.636 171.898C160.468 172.038 160.383 172.235 160.383 172.487C160.383 172.711 160.566 172.992 160.93 173.328C161.323 173.665 161.785 174.057 162.318 174.506C162.879 174.954 163.482 175.473 164.127 176.062C164.8 176.651 165.403 177.324 165.935 178.081C166.496 178.838 166.959 179.693 167.323 180.646C167.716 181.6 167.912 182.665 167.912 183.843C167.912 185.077 167.716 186.24 167.323 187.334C166.931 188.399 166.314 189.339 165.473 190.152C164.659 190.937 163.608 191.554 162.318 192.002C161.028 192.479 159.5 192.717 157.734 192.717C156.668 192.717 155.673 192.661 154.748 192.549C153.85 192.465 153.051 192.353 152.35 192.213C151.537 192.072 150.794 191.904 150.121 191.708V183.296Z" fill="white"/>
<path d="M182.136 192.717C180.37 192.717 178.772 192.493 177.342 192.044C175.911 191.596 174.692 190.923 173.682 190.026C172.673 189.128 171.888 187.993 171.327 186.619C170.794 185.245 170.528 183.633 170.528 181.782V163.949H179.487V181.403C179.487 182.385 179.683 183.142 180.075 183.675C180.496 184.179 181.183 184.432 182.136 184.432C183.09 184.432 183.763 184.179 184.155 183.675C184.576 183.142 184.786 182.385 184.786 181.403V163.949H193.787V181.782C193.787 183.633 193.506 185.245 192.945 186.619C192.413 187.993 191.628 189.128 190.59 190.026C189.581 190.923 188.361 191.596 186.931 192.044C185.501 192.493 183.903 192.717 182.136 192.717ZM182.136 187.67C177.93 187.67 175.827 185.609 175.827 181.488V167.314H174.734V181.488C174.734 183.843 175.365 185.651 176.626 186.913C177.916 188.147 179.753 188.764 182.136 188.764C184.52 188.764 186.356 188.147 187.646 186.913C188.936 185.651 189.581 183.843 189.581 181.488V167.314H188.445V181.488C188.445 185.609 186.342 187.67 182.136 187.67Z" fill="white"/>
</mask>
<g mask="url(#mask0)">
<path fill-rule="evenodd" clip-rule="evenodd" d="M229.935 124.708H6.3208V198.311H110.694L109.996 191.685L169.141 185.457L169.996 193.578L125.049 198.311H229.935V124.708Z" fill="#F51240"/>
</g>
<g filter="url(#filter0_d)">
<path d="M73.9567 214.65C74.0484 215.553 74.3066 216.393 74.7315 217.168C75.1532 217.912 75.69 218.55 76.3419 219.081C76.9939 219.613 77.7266 220.011 78.5402 220.275C79.3849 220.535 80.2589 220.619 81.1623 220.528C82.0656 220.436 82.8893 220.179 83.6333 219.758C84.4084 219.333 85.0619 218.794 85.5937 218.143C86.1255 217.491 86.5232 216.758 86.7868 215.944C87.0473 215.1 87.1316 214.226 87.04 213.322C86.9483 212.419 86.6916 211.595 86.2699 210.851C85.845 210.076 85.3066 209.423 84.6547 208.891C84.0028 208.359 83.2544 207.963 82.4097 207.702C81.5962 207.439 80.7377 207.353 79.8344 207.444C78.931 207.536 78.0918 207.794 77.3166 208.219C76.5726 208.641 75.9347 209.178 75.4029 209.83C74.8712 210.482 74.475 211.23 74.2146 212.075C73.951 212.888 73.865 213.747 73.9567 214.65ZM64.1442 215.646C63.9166 213.403 64.1221 211.242 64.7609 209.163C65.4307 207.081 66.4234 205.234 67.7389 203.621C69.0824 201.974 70.7082 200.629 72.6165 199.585C74.5216 198.511 76.5956 197.86 78.8385 197.632C81.0813 197.404 83.2438 197.626 85.326 198.295C87.405 198.934 89.2524 199.927 90.8683 201.273C92.5121 202.586 93.8557 204.196 94.8991 206.104C95.9737 208.009 96.6248 210.083 96.8524 212.326C96.9884 213.666 96.9638 214.974 96.7788 216.252C96.5937 217.53 96.2762 218.742 95.8261 219.889L98.7231 219.595L95.3477 228.199L87.0772 229.038C85.48 229.736 83.8403 230.169 82.1582 230.34C79.9153 230.568 77.7544 230.362 75.6754 229.724C73.5932 229.054 71.7302 228.063 70.0864 226.75C68.4705 225.404 67.1253 223.778 66.0508 221.873C65.0074 219.964 64.3719 217.889 64.1442 215.646Z" fill="#F51240"/>
<path d="M115.251 226.981C113.289 227.181 111.488 227.112 109.848 226.775C108.209 226.437 106.778 225.827 105.556 224.944C104.333 224.061 103.333 222.888 102.555 221.425C101.808 219.959 101.33 218.198 101.122 216.142L99.1109 196.33L109.064 195.32L111.032 214.711C111.142 215.801 111.446 216.62 111.942 217.168C112.466 217.681 113.258 217.884 114.317 217.776C115.376 217.669 116.095 217.313 116.474 216.708C116.882 216.068 117.03 215.204 116.919 214.113L114.951 194.722L124.95 193.707L126.961 213.519C127.17 215.575 127.04 217.398 126.572 218.987C126.135 220.574 125.391 221.924 124.34 223.038C123.319 224.148 122.04 225.034 120.502 225.693C118.964 226.353 117.214 226.782 115.251 226.981Z" fill="#F51240"/>
<path d="M129.492 193.246L140.052 192.175L143.215 223.341L132.655 224.413L129.492 193.246Z" fill="#F51240"/>
<path d="M153.82 199.038L145.222 199.911L147.57 191.412L167.522 189.387L159.015 213.476L169.248 212.437L166.947 220.932L145.313 223.128L153.82 199.038Z" fill="#F51240"/>
</g>
<defs>
<filter id="filter0_d" x="58.4844" y="188.639" width="116.281" height="53.3612" filterUnits="userSpaceOnUse" color-interpolation-filters="sRGB">
<feFlood flood-opacity="0" result="BackgroundImageFix"/>
<feColorMatrix in="SourceAlpha" type="matrix" values="0 0 0 0 0 0 0 0 0 0 0 0 0 0 0 0 0 0 127 0"/>
<feOffset dy="6"/>
<feGaussianBlur stdDeviation="2"/>
<feColorMatrix type="matrix" values="0 0 0 0 0 0 0 0 0 0 0 0 0 0 0 0 0 0 0.35 0"/>
<feBlend mode="normal" in2="BackgroundImageFix" result="effect1_dropShadow"/>
<feBlend mode="normal" in="SourceGraphic" in2="effect1_dropShadow" result="shape"/>
</filter>
</defs>
</svg>
