<svg width="18" height="20" viewBox="0 0 18 20" fill="none" xmlns="http://www.w3.org/2000/svg">
<ellipse cx="7.77246" cy="4.4" rx="4.5" ry="4.4" fill="#B00141"/>
<path fill-rule="evenodd" clip-rule="evenodd" d="M8.76986 17.9789C8.39412 17.266 8.18198 16.4572 8.18198 15.6C8.18198 13.1652 9.89348 11.1212 12.2043 10.5555C10.9472 9.70094 9.41981 9.20001 7.77273 9.20001C3.47997 9.20001 0 12.6027 0 16.8C0 16.8 3.47997 18 7.77273 18C8.11057 18 8.44338 17.9926 8.76986 17.9789Z" fill="#B00141"/>
<path d="M17.25 15.6C17.25 17.6001 15.587 19.25 13.5 19.25C11.413 19.25 9.75 17.6001 9.75 15.6C9.75 13.6 11.413 11.95 13.5 11.95C15.587 11.95 17.25 13.6 17.25 15.6Z" stroke="#B00141" stroke-width="1.5"/>
<path d="M11.4546 15.6L12.6819 17.2L15.9546 14.4" stroke="#B00141" stroke-width="1.5"/>
</svg>
